{
	"asset":{
		"generator":"Khronos glTF Blender I/O v3.5.30",
		"version":"2.0"
	},
	"extensionsUsed":[
		"KHR_materials_specular",
		"KHR_materials_ior"
	],
	"scene":0,
	"scenes":[
		{
			"name":"Scene",
			"nodes":[
				0
			]
		}
	],
	"nodes":[
		{
			"mesh":0,
			"name":"\u9664\u5c18-\u7535\u7089",
			"rotation":[
				0.5000000596046448,
				0.5,
				-0.5,
				0.5
			],
			"scale":[
				0.006071247160434723,
				0.006071247160434723,
				0.006071247160434723
			],
			"translation":[
				279.2263488769531,
				47.495697021484375,
				-157.51016235351562
			]
		}
	],
	"animations":[
		{
			"channels":[
				{
					"sampler":0,
					"target":{
						"node":0,
						"path":"translation"
					}
				},
				{
					"sampler":1,
					"target":{
						"node":0,
						"path":"rotation"
					}
				},
				{
					"sampler":2,
					"target":{
						"node":0,
						"path":"scale"
					}
				}
			],
			"name":"\u9664\u5c18-\u7535\u7089",
			"samplers":[
				{
					"input":3,
					"interpolation":"LINEAR",
					"output":4
				},
				{
					"input":3,
					"interpolation":"LINEAR",
					"output":5
				},
				{
					"input":3,
					"interpolation":"LINEAR",
					"output":6
				}
			]
		}
	],
	"materials":[
		{
			"alphaMode":"BLEND",
			"doubleSided":true,
			"extensions":{
				"KHR_materials_specular":{
					"specularColorFactor":[
						0,
						0,
						0
					]
				},
				"KHR_materials_ior":{
					"ior":1.4500000476837158
				}
			},
			"name":"\u9664\u5c18\u900f\u660e\u8bdd",
			"pbrMetallicRoughness":{
				"baseColorFactor":[
					0,
					0.04762720689177513,
					0.4969229996204376,
					1
				],
				"metallicFactor":0.8852459192276001,
				"roughnessFactor":0.21652019023895264
			}
		}
	],
	"meshes":[
		{
			"name":"\u9664\u5c18.001",
			"primitives":[
				{
					"attributes":{
						"POSITION":0,
						"NORMAL":1
					},
					"indices":2,
					"material":0
				}
			]
		}
	],
	"accessors":[
		{
			"bufferView":0,
			"componentType":5126,
			"count":69878,
			"max":[
				3066.307373046875,
				8068.05615234375,
				7122.2529296875
			],
			"min":[
				-3073.692626953125,
				-7758.328125,
				-18397.74609375
			],
			"type":"VEC3"
		},
		{
			"bufferView":1,
			"componentType":5126,
			"count":69878,
			"type":"VEC3"
		},
		{
			"bufferView":2,
			"componentType":5125,
			"count":95772,
			"type":"SCALAR"
		},
		{
			"bufferView":3,
			"componentType":5126,
			"count":601,
			"max":[
				25
			],
			"min":[
				0
			],
			"type":"SCALAR"
		},
		{
			"bufferView":4,
			"componentType":5126,
			"count":601,
			"type":"VEC3"
		},
		{
			"bufferView":5,
			"componentType":5126,
			"count":601,
			"type":"VEC4"
		},
		{
			"bufferView":6,
			"componentType":5126,
			"count":601,
			"type":"VEC3"
		}
	],
	"bufferViews":[
		{
			"buffer":0,
			"byteLength":838536,
			"byteOffset":0,
			"target":34962
		},
		{
			"buffer":0,
			"byteLength":838536,
			"byteOffset":838536,
			"target":34962
		},
		{
			"buffer":0,
			"byteLength":383088,
			"byteOffset":1677072,
			"target":34963
		},
		{
			"buffer":0,
			"byteLength":2404,
			"byteOffset":2060160
		},
		{
			"buffer":0,
			"byteLength":7212,
			"byteOffset":2062564
		},
		{
			"buffer":0,
			"byteLength":9616,
			"byteOffset":2069776
		},
		{
			"buffer":0,
			"byteLength":7212,
			"byteOffset":2079392
		}
	],
	"buffers":[
		{
			"byteLength":2086604,
			"uri":"data:application/octet-stream;base64,"
		}
	]
}
